<mxfile host="Electron" agent="Mozilla/5.0 (Windows NT 10.0; Win64; x64) AppleWebKit/537.36 (KHTML, like Gecko) draw.io/28.1.2 Chrome/138.0.7204.243 Electron/37.4.0 Safari/537.36" version="28.1.2">
  <diagram name="Page-1" id="QpnOvKzDSBQts3F0rrFX">
    <mxGraphModel dx="872" dy="547" grid="1" gridSize="10" guides="1" tooltips="1" connect="1" arrows="1" fold="1" page="1" pageScale="1" pageWidth="850" pageHeight="1100" math="0" shadow="0">
      <root>
        <mxCell id="0" />
        <mxCell id="1" parent="0" />
        <mxCell id="gnAVs_L61cqg_Q5rOyte-10" value="" style="rounded=1;whiteSpace=wrap;html=1;fillColor=none;strokeColor=#d6b656;gradientColor=#ffd966;" parent="1" vertex="1">
          <mxGeometry x="270" y="160" width="120" height="270" as="geometry" />
        </mxCell>
        <mxCell id="3Fw7zB9ieiLy5x_d1a9w-2" value="" style="rounded=1;whiteSpace=wrap;html=1;fillColor=none;strokeColor=#666666;gradientColor=#b3b3b3;" parent="1" vertex="1">
          <mxGeometry x="490" y="160" width="120" height="270" as="geometry" />
        </mxCell>
        <mxCell id="gnAVs_L61cqg_Q5rOyte-3" value="&lt;b&gt;&lt;font style=&quot;font-size: 19px;&quot;&gt;Data Flow Diagram&lt;/font&gt;&lt;/b&gt;" style="text;html=1;align=center;verticalAlign=middle;whiteSpace=wrap;rounded=0;" parent="1" vertex="1">
          <mxGeometry x="50" y="20" width="190" height="50" as="geometry" />
        </mxCell>
        <mxCell id="gnAVs_L61cqg_Q5rOyte-4" value="" style="rounded=0;whiteSpace=wrap;html=1;dashed=1;" parent="1" vertex="1">
          <mxGeometry x="90" y="120" width="110" height="310" as="geometry" />
        </mxCell>
        <mxCell id="gnAVs_L61cqg_Q5rOyte-5" value="&lt;font style=&quot;font-size: 14px;&quot;&gt;Sources&lt;/font&gt;" style="text;html=1;align=center;verticalAlign=middle;whiteSpace=wrap;rounded=0;fillColor=default;" parent="1" vertex="1">
          <mxGeometry x="108" y="109" width="75" height="30" as="geometry" />
        </mxCell>
        <mxCell id="gnAVs_L61cqg_Q5rOyte-6" value="&lt;font style=&quot;font-size: 10px;&quot;&gt;CRM&lt;/font&gt;" style="image;aspect=fixed;html=1;points=[];align=center;fontSize=12;image=img/lib/azure2/general/Folder_Blank.svg;" parent="1" vertex="1">
          <mxGeometry x="127.01999999999998" y="202" width="36.96" height="30" as="geometry" />
        </mxCell>
        <mxCell id="gnAVs_L61cqg_Q5rOyte-21" style="edgeStyle=orthogonalEdgeStyle;rounded=0;orthogonalLoop=1;jettySize=auto;html=1;entryX=0;entryY=0.5;entryDx=0;entryDy=0;" parent="1" source="gnAVs_L61cqg_Q5rOyte-8" target="gnAVs_L61cqg_Q5rOyte-15" edge="1">
          <mxGeometry relative="1" as="geometry" />
        </mxCell>
        <mxCell id="gnAVs_L61cqg_Q5rOyte-22" style="edgeStyle=orthogonalEdgeStyle;rounded=0;orthogonalLoop=1;jettySize=auto;html=1;entryX=0;entryY=0.5;entryDx=0;entryDy=0;" parent="1" source="gnAVs_L61cqg_Q5rOyte-8" target="gnAVs_L61cqg_Q5rOyte-14" edge="1">
          <mxGeometry relative="1" as="geometry" />
        </mxCell>
        <mxCell id="gnAVs_L61cqg_Q5rOyte-23" style="edgeStyle=orthogonalEdgeStyle;rounded=0;orthogonalLoop=1;jettySize=auto;html=1;entryX=0;entryY=0.5;entryDx=0;entryDy=0;" parent="1" source="gnAVs_L61cqg_Q5rOyte-8" target="gnAVs_L61cqg_Q5rOyte-16" edge="1">
          <mxGeometry relative="1" as="geometry" />
        </mxCell>
        <mxCell id="gnAVs_L61cqg_Q5rOyte-8" value="&lt;font style=&quot;font-size: 10px;&quot;&gt;ERP&lt;/font&gt;" style="image;aspect=fixed;html=1;points=[];align=center;fontSize=12;image=img/lib/azure2/general/Folder_Blank.svg;" parent="1" vertex="1">
          <mxGeometry x="127.02" y="319" width="36.96" height="30" as="geometry" />
        </mxCell>
        <mxCell id="gnAVs_L61cqg_Q5rOyte-9" value="Bronze Layer" style="rounded=1;whiteSpace=wrap;html=1;fillColor=#fff2cc;strokeColor=#d6b656;gradientColor=#ffd966;" parent="1" vertex="1">
          <mxGeometry x="270" y="120" width="120" height="30" as="geometry" />
        </mxCell>
        <mxCell id="3Fw7zB9ieiLy5x_d1a9w-14" style="edgeStyle=orthogonalEdgeStyle;rounded=0;orthogonalLoop=1;jettySize=auto;html=1;entryX=0;entryY=0.5;entryDx=0;entryDy=0;" parent="1" source="gnAVs_L61cqg_Q5rOyte-11" target="3Fw7zB9ieiLy5x_d1a9w-3" edge="1">
          <mxGeometry relative="1" as="geometry" />
        </mxCell>
        <mxCell id="gnAVs_L61cqg_Q5rOyte-11" value="crm_sales_details" style="rounded=1;whiteSpace=wrap;html=1;fillColor=#fff2cc;strokeColor=#d6b656;gradientColor=#ffd966;" parent="1" vertex="1">
          <mxGeometry x="275" y="178" width="110" height="20" as="geometry" />
        </mxCell>
        <mxCell id="3Fw7zB9ieiLy5x_d1a9w-15" style="edgeStyle=orthogonalEdgeStyle;rounded=0;orthogonalLoop=1;jettySize=auto;html=1;entryX=0;entryY=0.5;entryDx=0;entryDy=0;" parent="1" source="gnAVs_L61cqg_Q5rOyte-12" target="3Fw7zB9ieiLy5x_d1a9w-4" edge="1">
          <mxGeometry relative="1" as="geometry" />
        </mxCell>
        <mxCell id="gnAVs_L61cqg_Q5rOyte-12" value="crm_cust_info" style="rounded=1;whiteSpace=wrap;html=1;fillColor=#fff2cc;strokeColor=#d6b656;gradientColor=#ffd966;" parent="1" vertex="1">
          <mxGeometry x="275" y="208" width="110" height="20" as="geometry" />
        </mxCell>
        <mxCell id="3Fw7zB9ieiLy5x_d1a9w-16" style="edgeStyle=orthogonalEdgeStyle;rounded=0;orthogonalLoop=1;jettySize=auto;html=1;entryX=0;entryY=0.5;entryDx=0;entryDy=0;" parent="1" source="gnAVs_L61cqg_Q5rOyte-13" target="3Fw7zB9ieiLy5x_d1a9w-5" edge="1">
          <mxGeometry relative="1" as="geometry" />
        </mxCell>
        <mxCell id="gnAVs_L61cqg_Q5rOyte-13" value="crm_prd_info" style="rounded=1;whiteSpace=wrap;html=1;fillColor=#fff2cc;strokeColor=#d6b656;gradientColor=#ffd966;" parent="1" vertex="1">
          <mxGeometry x="275" y="240" width="110" height="20" as="geometry" />
        </mxCell>
        <mxCell id="3Fw7zB9ieiLy5x_d1a9w-17" style="edgeStyle=orthogonalEdgeStyle;rounded=0;orthogonalLoop=1;jettySize=auto;html=1;entryX=0;entryY=0.5;entryDx=0;entryDy=0;" parent="1" source="gnAVs_L61cqg_Q5rOyte-14" target="3Fw7zB9ieiLy5x_d1a9w-6" edge="1">
          <mxGeometry relative="1" as="geometry" />
        </mxCell>
        <mxCell id="gnAVs_L61cqg_Q5rOyte-14" value="erp_cust_az12" style="rounded=1;whiteSpace=wrap;html=1;fillColor=#fff2cc;strokeColor=#d6b656;gradientColor=#ffd966;" parent="1" vertex="1">
          <mxGeometry x="275" y="297" width="110" height="20" as="geometry" />
        </mxCell>
        <mxCell id="3Fw7zB9ieiLy5x_d1a9w-18" style="edgeStyle=orthogonalEdgeStyle;rounded=0;orthogonalLoop=1;jettySize=auto;html=1;entryX=0;entryY=0.5;entryDx=0;entryDy=0;" parent="1" source="gnAVs_L61cqg_Q5rOyte-15" target="3Fw7zB9ieiLy5x_d1a9w-7" edge="1">
          <mxGeometry relative="1" as="geometry" />
        </mxCell>
        <mxCell id="gnAVs_L61cqg_Q5rOyte-15" value="erp_loc_a101" style="rounded=1;whiteSpace=wrap;html=1;fillColor=#fff2cc;strokeColor=#d6b656;gradientColor=#ffd966;" parent="1" vertex="1">
          <mxGeometry x="275" y="327" width="110" height="20" as="geometry" />
        </mxCell>
        <mxCell id="3Fw7zB9ieiLy5x_d1a9w-19" style="edgeStyle=orthogonalEdgeStyle;rounded=0;orthogonalLoop=1;jettySize=auto;html=1;entryX=0;entryY=0.5;entryDx=0;entryDy=0;" parent="1" source="gnAVs_L61cqg_Q5rOyte-16" target="3Fw7zB9ieiLy5x_d1a9w-8" edge="1">
          <mxGeometry relative="1" as="geometry" />
        </mxCell>
        <mxCell id="gnAVs_L61cqg_Q5rOyte-16" value="erp_px_cat_g1v2" style="rounded=1;whiteSpace=wrap;html=1;fillColor=#fff2cc;strokeColor=#d6b656;gradientColor=#ffd966;" parent="1" vertex="1">
          <mxGeometry x="275" y="359" width="110" height="20" as="geometry" />
        </mxCell>
        <mxCell id="gnAVs_L61cqg_Q5rOyte-18" style="edgeStyle=orthogonalEdgeStyle;rounded=0;orthogonalLoop=1;jettySize=auto;html=1;entryX=0.042;entryY=0.222;entryDx=0;entryDy=0;entryPerimeter=0;" parent="1" source="gnAVs_L61cqg_Q5rOyte-6" target="gnAVs_L61cqg_Q5rOyte-10" edge="1">
          <mxGeometry relative="1" as="geometry" />
        </mxCell>
        <mxCell id="gnAVs_L61cqg_Q5rOyte-19" style="edgeStyle=orthogonalEdgeStyle;rounded=0;orthogonalLoop=1;jettySize=auto;html=1;entryX=0.033;entryY=0.111;entryDx=0;entryDy=0;entryPerimeter=0;" parent="1" source="gnAVs_L61cqg_Q5rOyte-6" target="gnAVs_L61cqg_Q5rOyte-10" edge="1">
          <mxGeometry relative="1" as="geometry" />
        </mxCell>
        <mxCell id="gnAVs_L61cqg_Q5rOyte-20" style="edgeStyle=orthogonalEdgeStyle;rounded=0;orthogonalLoop=1;jettySize=auto;html=1;entryX=0.042;entryY=0.337;entryDx=0;entryDy=0;entryPerimeter=0;" parent="1" source="gnAVs_L61cqg_Q5rOyte-6" target="gnAVs_L61cqg_Q5rOyte-10" edge="1">
          <mxGeometry relative="1" as="geometry" />
        </mxCell>
        <mxCell id="3Fw7zB9ieiLy5x_d1a9w-1" value="Silver Layer" style="rounded=1;whiteSpace=wrap;html=1;fillColor=#f5f5f5;strokeColor=#666666;gradientColor=#b3b3b3;" parent="1" vertex="1">
          <mxGeometry x="490" y="120" width="120" height="30" as="geometry" />
        </mxCell>
        <mxCell id="3Fw7zB9ieiLy5x_d1a9w-3" value="crm_sales_details" style="rounded=1;whiteSpace=wrap;html=1;fillColor=#f5f5f5;strokeColor=#666666;gradientColor=#b3b3b3;" parent="1" vertex="1">
          <mxGeometry x="495" y="178" width="110" height="20" as="geometry" />
        </mxCell>
        <mxCell id="3Fw7zB9ieiLy5x_d1a9w-4" value="crm_cust_info" style="rounded=1;whiteSpace=wrap;html=1;fillColor=#f5f5f5;strokeColor=#666666;gradientColor=#b3b3b3;" parent="1" vertex="1">
          <mxGeometry x="495" y="208" width="110" height="20" as="geometry" />
        </mxCell>
        <mxCell id="3Fw7zB9ieiLy5x_d1a9w-5" value="crm_prd_info" style="rounded=1;whiteSpace=wrap;html=1;fillColor=#f5f5f5;strokeColor=#666666;gradientColor=#b3b3b3;" parent="1" vertex="1">
          <mxGeometry x="495" y="240" width="110" height="20" as="geometry" />
        </mxCell>
        <mxCell id="3Fw7zB9ieiLy5x_d1a9w-6" value="erp_cust_az12" style="rounded=1;whiteSpace=wrap;html=1;fillColor=#f5f5f5;strokeColor=#666666;gradientColor=#b3b3b3;" parent="1" vertex="1">
          <mxGeometry x="495" y="297" width="110" height="20" as="geometry" />
        </mxCell>
        <mxCell id="3Fw7zB9ieiLy5x_d1a9w-7" value="erp_loc_a101" style="rounded=1;whiteSpace=wrap;html=1;fillColor=#f5f5f5;strokeColor=#666666;gradientColor=#b3b3b3;" parent="1" vertex="1">
          <mxGeometry x="495" y="327" width="110" height="20" as="geometry" />
        </mxCell>
        <mxCell id="3Fw7zB9ieiLy5x_d1a9w-8" value="erp_px_cat_g1v2" style="rounded=1;whiteSpace=wrap;html=1;fillColor=#f5f5f5;strokeColor=#666666;gradientColor=#b3b3b3;" parent="1" vertex="1">
          <mxGeometry x="495" y="359" width="110" height="20" as="geometry" />
        </mxCell>
        <mxCell id="XFeeCYnvXoOF-ZWdqC4q-1" value="" style="rounded=1;whiteSpace=wrap;html=1;fillColor=none;strokeColor=#B09500;fontColor=#000000;" vertex="1" parent="1">
          <mxGeometry x="700" y="160" width="120" height="270" as="geometry" />
        </mxCell>
        <mxCell id="XFeeCYnvXoOF-ZWdqC4q-2" value="Gold Layer" style="rounded=1;whiteSpace=wrap;html=1;fillColor=#e3c800;strokeColor=#B09500;fontColor=#000000;" vertex="1" parent="1">
          <mxGeometry x="700" y="120" width="120" height="30" as="geometry" />
        </mxCell>
        <mxCell id="XFeeCYnvXoOF-ZWdqC4q-3" value="fact_sales" style="rounded=1;whiteSpace=wrap;html=1;fillColor=#e3c800;strokeColor=#B09500;fontColor=#000000;" vertex="1" parent="1">
          <mxGeometry x="705" y="188" width="110" height="20" as="geometry" />
        </mxCell>
        <mxCell id="XFeeCYnvXoOF-ZWdqC4q-4" value="dim_customers" style="rounded=1;whiteSpace=wrap;html=1;fillColor=#e3c800;strokeColor=#B09500;fontColor=#000000;" vertex="1" parent="1">
          <mxGeometry x="705" y="250" width="110" height="20" as="geometry" />
        </mxCell>
        <mxCell id="XFeeCYnvXoOF-ZWdqC4q-5" value="dim_products" style="rounded=1;whiteSpace=wrap;html=1;fillColor=#e3c800;strokeColor=#B09500;fontColor=#000000;" vertex="1" parent="1">
          <mxGeometry x="705" y="308" width="110" height="20" as="geometry" />
        </mxCell>
        <mxCell id="XFeeCYnvXoOF-ZWdqC4q-9" value="" style="endArrow=classic;html=1;rounded=0;exitX=1;exitY=0.5;exitDx=0;exitDy=0;entryX=0;entryY=0.5;entryDx=0;entryDy=0;" edge="1" parent="1" source="3Fw7zB9ieiLy5x_d1a9w-3" target="XFeeCYnvXoOF-ZWdqC4q-3">
          <mxGeometry width="50" height="50" relative="1" as="geometry">
            <mxPoint x="650" y="248" as="sourcePoint" />
            <mxPoint x="700" y="198" as="targetPoint" />
          </mxGeometry>
        </mxCell>
        <mxCell id="XFeeCYnvXoOF-ZWdqC4q-10" value="" style="endArrow=classic;html=1;rounded=0;exitX=1;exitY=0.5;exitDx=0;exitDy=0;entryX=0;entryY=0.5;entryDx=0;entryDy=0;jumpStyle=gap;" edge="1" parent="1" source="3Fw7zB9ieiLy5x_d1a9w-4" target="XFeeCYnvXoOF-ZWdqC4q-4">
          <mxGeometry width="50" height="50" relative="1" as="geometry">
            <mxPoint x="620" y="240" as="sourcePoint" />
            <mxPoint x="720" y="308" as="targetPoint" />
          </mxGeometry>
        </mxCell>
        <mxCell id="XFeeCYnvXoOF-ZWdqC4q-11" value="" style="endArrow=classic;html=1;rounded=0;exitX=1;exitY=0.5;exitDx=0;exitDy=0;entryX=0;entryY=0.5;entryDx=0;entryDy=0;jumpStyle=gap;" edge="1" parent="1" source="3Fw7zB9ieiLy5x_d1a9w-5" target="XFeeCYnvXoOF-ZWdqC4q-5">
          <mxGeometry width="50" height="50" relative="1" as="geometry">
            <mxPoint x="620" y="230" as="sourcePoint" />
            <mxPoint x="720" y="298" as="targetPoint" />
          </mxGeometry>
        </mxCell>
        <mxCell id="XFeeCYnvXoOF-ZWdqC4q-12" value="" style="endArrow=classic;html=1;rounded=0;exitX=1;exitY=0.5;exitDx=0;exitDy=0;entryX=0;entryY=0.5;entryDx=0;entryDy=0;jumpStyle=gap;" edge="1" parent="1" source="3Fw7zB9ieiLy5x_d1a9w-6" target="XFeeCYnvXoOF-ZWdqC4q-4">
          <mxGeometry width="50" height="50" relative="1" as="geometry">
            <mxPoint x="650" y="280" as="sourcePoint" />
            <mxPoint x="750" y="348" as="targetPoint" />
          </mxGeometry>
        </mxCell>
        <mxCell id="XFeeCYnvXoOF-ZWdqC4q-13" value="" style="endArrow=classic;html=1;rounded=0;exitX=1;exitY=0.5;exitDx=0;exitDy=0;entryX=0;entryY=0.75;entryDx=0;entryDy=0;jumpStyle=gap;" edge="1" parent="1" source="3Fw7zB9ieiLy5x_d1a9w-7" target="XFeeCYnvXoOF-ZWdqC4q-4">
          <mxGeometry width="50" height="50" relative="1" as="geometry">
            <mxPoint x="630" y="347" as="sourcePoint" />
            <mxPoint x="730" y="300" as="targetPoint" />
          </mxGeometry>
        </mxCell>
        <mxCell id="XFeeCYnvXoOF-ZWdqC4q-14" value="" style="endArrow=classic;html=1;rounded=0;exitX=1;exitY=0.25;exitDx=0;exitDy=0;entryX=0;entryY=0.5;entryDx=0;entryDy=0;jumpStyle=gap;" edge="1" parent="1" source="3Fw7zB9ieiLy5x_d1a9w-8" target="XFeeCYnvXoOF-ZWdqC4q-5">
          <mxGeometry width="50" height="50" relative="1" as="geometry">
            <mxPoint x="640" y="382" as="sourcePoint" />
            <mxPoint x="740" y="310" as="targetPoint" />
          </mxGeometry>
        </mxCell>
      </root>
    </mxGraphModel>
  </diagram>
</mxfile>
